<svg width="25" height="24" viewBox="0 0 25 24" fill="none" xmlns="http://www.w3.org/2000/svg">
<g id="Group">
<path id="Vector" fill-rule="evenodd" clip-rule="evenodd" d="M13.6043 3.93751C13.6043 3.68887 13.5055 3.45041 13.3297 3.27459C13.1539 3.09877 12.9154 3 12.6667 3C12.4181 3 12.1796 3.09877 12.0038 3.27459C11.828 3.45041 11.7292 3.68887 11.7292 3.93751V5.50003H10.4992C10.118 5.50003 9.74421 5.60003 9.41296 5.78753L7.80294 6.70879C7.75538 6.73601 7.70149 6.75023 7.64669 6.75004H4.85416C4.60551 6.75004 4.36705 6.84882 4.19124 7.02463C4.01542 7.20045 3.91665 7.43891 3.91665 7.68755C3.91665 7.9362 4.01542 8.17466 4.19124 8.35047C4.36705 8.52629 4.60551 8.62507 4.85416 8.62507H5.38916L2.74913 14.4901C2.67115 14.6636 2.64781 14.8568 2.68219 15.0439C2.71657 15.231 2.80706 15.4032 2.94163 15.5376L3.60414 14.8751L2.94163 15.5376V15.5389L2.94413 15.5414L2.94663 15.5439L2.95413 15.5514L2.97413 15.5701L3.03039 15.6201C3.29328 15.8405 3.58108 16.0293 3.8879 16.1827C4.67504 16.5664 5.54103 16.7608 6.41668 16.7502C7.51669 16.7502 8.3617 16.4752 8.94545 16.1827C9.25227 16.0293 9.54007 15.8405 9.80297 15.6201L9.85922 15.5701L9.87922 15.5514L9.88672 15.5439L9.88922 15.5414L9.89047 15.5389L9.22921 14.8751L9.89172 15.5376C10.0263 15.4032 10.1168 15.231 10.1512 15.0439C10.1855 14.8568 10.1622 14.6636 10.0842 14.4901L7.44419 8.62507H7.64669C8.02794 8.62507 8.4017 8.52506 8.73295 8.33756L10.3442 7.4163C10.3914 7.3893 10.4448 7.37508 10.4992 7.37505H11.7292V19.2502H8.6042C8.35556 19.2502 8.1171 19.349 7.94128 19.5248C7.76546 19.7006 7.66669 19.9391 7.66669 20.1877C7.66669 20.4363 7.76546 20.6748 7.94128 20.8506C8.1171 21.0264 8.35556 21.1252 8.6042 21.1252H16.7293C16.9779 21.1252 17.2164 21.0264 17.3922 20.8506C17.568 20.6748 17.6668 20.4363 17.6668 20.1877C17.6668 19.9391 17.568 19.7006 17.3922 19.5248C17.2164 19.349 16.9779 19.2502 16.7293 19.2502H13.6043V7.37505H14.8343C14.8886 7.37508 14.9421 7.3893 14.9893 7.4163L16.6018 8.33631C16.9318 8.52631 17.3056 8.62507 17.6868 8.62507H17.8893L15.2493 14.4901C15.1713 14.6636 15.148 14.8568 15.1823 15.0439C15.2167 15.231 15.3072 15.4032 15.4418 15.5376L16.1043 14.8751L15.4418 15.5376V15.5389L15.4443 15.5414L15.4468 15.5439L15.4543 15.5514L15.4743 15.5701L15.5305 15.6201C15.7934 15.8405 16.0812 16.0292 16.388 16.1827C17.1752 16.5664 18.0412 16.7608 18.9168 16.7502C20.0168 16.7502 20.8618 16.4752 21.4456 16.1827C21.7524 16.0293 22.0402 15.8405 22.3031 15.6201L22.3594 15.5701L22.3719 15.5576L22.3794 15.5514L22.3869 15.5439L22.3894 15.5414L22.3906 15.5389L21.7294 14.8751L22.3919 15.5376C22.5264 15.4032 22.6169 15.231 22.6513 15.0439C22.6857 14.8568 22.6623 14.6636 22.5844 14.4901L19.9456 8.62507H20.4793C20.728 8.62507 20.9664 8.52629 21.1423 8.35047C21.3181 8.17466 21.4169 7.9362 21.4169 7.68755C21.4169 7.43891 21.3181 7.20045 21.1423 7.02463C20.9664 6.84882 20.728 6.75004 20.4793 6.75004H17.6868C17.6324 6.75001 17.579 6.73579 17.5318 6.70879L15.9193 5.78878C15.5893 5.59998 15.2157 5.50046 14.8355 5.50003H13.6043V3.93751ZM4.78541 14.5339C5.14166 14.7026 5.68292 14.8751 6.41668 14.8751C7.15043 14.8751 7.69169 14.7026 8.04794 14.5339L6.41668 10.9088L4.78541 14.5339ZM17.2856 14.5339C17.6418 14.7026 18.1831 14.8751 18.9168 14.8751C19.6506 14.8751 20.1918 14.7026 20.5481 14.5339L18.9168 10.9088L17.2856 14.5339Z" fill="white"/>
</g>
</svg>
