<svg width="25" height="24" viewBox="0 0 25 24" fill="none" xmlns="http://www.w3.org/2000/svg">
<g id="Group">
<path id="Vector" d="M12.6667 4.5C7.66675 4.5 3.39675 7.61 1.66675 12C3.39675 16.39 7.66675 19.5 12.6667 19.5C17.6667 19.5 21.9367 16.39 23.6667 12C21.9367 7.61 17.6667 4.5 12.6667 4.5ZM12.6667 17C9.90675 17 7.66675 14.76 7.66675 12C7.66675 9.24 9.90675 7 12.6667 7C15.4267 7 17.6667 9.24 17.6667 12C17.6667 14.76 15.4267 17 12.6667 17ZM12.6667 9C11.0067 9 9.66675 10.34 9.66675 12C9.66675 13.66 11.0067 15 12.6667 15C14.3267 15 15.6667 13.66 15.6667 12C15.6667 10.34 14.3267 9 12.6667 9Z" fill="#9CFFF9"/>
</g>
</svg>
