<svg width="25" height="24" viewBox="0 0 25 24" fill="none" xmlns="http://www.w3.org/2000/svg">
<g id="link" clip-path="url(#clip0_1_833)">
<path id="Vector" d="M4.56675 12C4.56675 10.29 5.95675 8.9 7.66675 8.9H11.6667V7H7.66675C4.90675 7 2.66675 9.24 2.66675 12C2.66675 14.76 4.90675 17 7.66675 17H11.6667V15.1H7.66675C5.95675 15.1 4.56675 13.71 4.56675 12ZM8.66675 13H16.6667V11H8.66675V13ZM17.6667 7H13.6667V8.9H17.6667C19.3767 8.9 20.7667 10.29 20.7667 12C20.7667 13.71 19.3767 15.1 17.6667 15.1H13.6667V17H17.6667C20.4267 17 22.6667 14.76 22.6667 12C22.6667 9.24 20.4267 7 17.6667 7Z" fill="#58A6FF"/>
</g>
<defs>
<clipPath id="clip0_1_833">
<rect width="24" height="24" fill="white" transform="translate(0.666748)"/>
</clipPath>
</defs>
</svg>
