<svg width="25" height="24" viewBox="0 0 25 24" fill="none" xmlns="http://www.w3.org/2000/svg">
<g id="Group">
<path id="Vector" fill-rule="evenodd" clip-rule="evenodd" d="M7.95225 6.21315C7.95225 6.4973 7.83938 6.76981 7.63846 6.97073C7.43753 7.17165 7.16503 7.28453 6.88088 7.28453C6.59673 7.28453 6.32422 7.17165 6.1233 6.97073C5.92238 6.76981 5.8095 6.4973 5.8095 6.21315C5.8095 5.92901 5.92238 5.6565 6.1233 5.45558C6.32422 5.25466 6.59673 5.14178 6.88088 5.14178C7.16503 5.14178 7.43753 5.25466 7.63846 5.45558C7.83938 5.6565 7.95225 5.92901 7.95225 6.21315ZM7.95225 9.24443C8.66709 8.9917 9.26957 8.4944 9.6532 7.84042C10.0368 7.18644 10.1769 6.41789 10.0487 5.67061C9.9205 4.92333 9.53224 4.24543 8.95255 3.75674C8.37287 3.26804 7.63908 3 6.88088 3C6.12268 3 5.38889 3.26804 4.8092 3.75674C4.22952 4.24543 3.84126 4.92333 3.71304 5.67061C3.58483 6.41789 3.72492 7.18644 4.10856 7.84042C4.49219 8.4944 5.09467 8.9917 5.8095 9.24443V10.4987C5.8095 11.3511 6.14813 12.1686 6.7509 12.7714C7.35367 13.3741 8.17119 13.7128 9.02363 13.7128H11.1664V16.7526C10.4511 17.0054 9.84829 17.5028 9.46439 18.1571C9.08049 18.8114 8.94025 19.5803 9.06847 20.328C9.19669 21.0756 9.5851 21.7539 10.1651 22.2428C10.745 22.7318 11.4792 23 12.2378 23C12.9963 23 13.7305 22.7318 14.3104 22.2428C14.8904 21.7539 15.2788 21.0756 15.407 20.328C15.5353 19.5803 15.395 18.8114 15.0111 18.1571C14.6272 17.5028 14.0244 17.0054 13.3091 16.7526V13.7128H15.4519C16.3043 13.7128 17.1218 13.3741 17.7246 12.7714C18.3274 12.1686 18.666 11.3511 18.666 10.4987V9.24443C19.3808 8.9917 19.9833 8.4944 20.367 7.84042C20.7506 7.18644 20.8907 6.41789 20.7625 5.67061C20.6343 4.92333 20.246 4.24543 19.6663 3.75674C19.0866 3.26804 18.3528 3 17.5946 3C16.8364 3 16.1026 3.26804 15.523 3.75674C14.9433 4.24543 14.555 4.92333 14.4268 5.67061C14.2986 6.41789 14.4387 7.18644 14.8223 7.84042C15.2059 8.4944 15.8084 8.9917 16.5233 9.24443V10.4987C16.5233 10.7828 16.4104 11.0553 16.2095 11.2562C16.0085 11.4572 15.736 11.57 15.4519 11.57H9.02363C8.73948 11.57 8.46697 11.4572 8.26605 11.2562C8.06513 11.0553 7.95225 10.7828 7.95225 10.4987V9.24443ZM13.3091 19.7839C13.3091 20.068 13.1963 20.3406 12.9953 20.5415C12.7944 20.7424 12.5219 20.8553 12.2378 20.8553C11.9536 20.8553 11.6811 20.7424 11.4802 20.5415C11.2793 20.3406 11.1664 20.068 11.1664 19.7839C11.1664 19.4998 11.2793 19.2272 11.4802 19.0263C11.6811 18.8254 11.9536 18.7125 12.2378 18.7125C12.5219 18.7125 12.7944 18.8254 12.9953 19.0263C13.1963 19.2272 13.3091 19.4998 13.3091 19.7839ZM17.5946 7.28453C17.8788 7.28453 18.1513 7.17165 18.3522 6.97073C18.5531 6.76981 18.666 6.4973 18.666 6.21315C18.666 5.92901 18.5531 5.6565 18.3522 5.45558C18.1513 5.25466 17.8788 5.14178 17.5946 5.14178C17.3105 5.14178 17.038 5.25466 16.8371 5.45558C16.6361 5.6565 16.5233 5.92901 16.5233 6.21315C16.5233 6.4973 16.6361 6.76981 16.8371 6.97073C17.038 7.17165 17.3105 7.28453 17.5946 7.28453Z" fill="#6ED370"/>
</g>
</svg>
